<?xml version="1.0" encoding="UTF-8"?>
<svg width="200" height="200" viewBox="0 0 200 200" xmlns="http://www.w3.org/2000/svg">
    <!-- UN Blue Circle Background -->
    <circle cx="100" cy="100" r="90" fill="#0066CC"/>
    
    <!-- Olive Branches -->
    <path d="M40,100 C40,60 60,40 100,40 C140,40 160,60 160,100" 
          stroke="#FFFFFF" 
          stroke-width="8" 
          fill="none" 
          stroke-linecap="round"/>
    
    <!-- World Map -->
    <path d="M100,40 C120,40 140,60 140,100 C140,140 120,160 100,160 C80,160 60,140 60,100 C60,60 80,40 100,40" 
          stroke="#FFFFFF" 
          stroke-width="4" 
          fill="none"/>
    
    <!-- North America -->
    <path d="M80,60 L90,50 L100,60 L90,70 Z" fill="#FFFFFF"/>
    
    <!-- South America -->
    <path d="M85,80 L95,70 L105,80 L95,90 Z" fill="#FFFFFF"/>
    
    <!-- Europe -->
    <path d="M95,50 L105,40 L115,50 L105,60 Z" fill="#FFFFFF"/>
    
    <!-- Africa -->
    <path d="M90,70 L100,60 L110,70 L100,80 Z" fill="#FFFFFF"/>
    
    <!-- Asia -->
    <path d="M100,50 L110,40 L120,50 L110,60 Z" fill="#FFFFFF"/>
    
    <!-- Australia -->
    <path d="M105,80 L115,70 L125,80 L115,90 Z" fill="#FFFFFF"/>
</svg> 